<svg width="22" height="22" viewBox="0 0 22 22" fill="none" xmlns="http://www.w3.org/2000/svg">
<path d="M17.834 9.417C17.834 11.0817 17.3404 12.7091 16.4155 14.0932C15.4906 15.4774 14.1761 16.5562 12.6381 17.1933C11.1 17.8304 9.40767 17.997 7.77493 17.6723C6.14219 17.3475 4.64242 16.5459 3.46529 15.3687C2.28815 14.1916 1.48651 12.6918 1.16173 11.0591C0.836962 9.42634 1.00365 7.73396 1.64071 6.19595C2.27777 4.65795 3.3566 3.34339 4.74077 2.41852C6.12494 1.49365 7.75228 1 9.417 1C11.6493 1 13.7902 1.88679 15.3687 3.46528C16.9472 5.04378 17.834 7.18467 17.834 9.417V9.417Z" stroke="white" stroke-width="2" stroke-linecap="round" stroke-linejoin="round"/>
<path d="M19.9383 19.938L15.3613 15.361" stroke="white" stroke-width="2" stroke-linecap="round" stroke-linejoin="round"/>
</svg>
